<?xml version="1.0" encoding="UTF-8" standalone="no"?>
<svg
   viewBox="0 0 1800 429"
   preserveAspectRatio="xMidYMid meet"
   version="1.1"
   id="svg1"
   sodipodi:docname="compari.svg"
   inkscape:version="1.4.3 (0d15f75, 2025-12-25)"
   xmlns:inkscape="http://www.inkscape.org/namespaces/inkscape"
   xmlns:sodipodi="http://sodipodi.sourceforge.net/DTD/sodipodi-0.dtd"
   xmlns="http://www.w3.org/2000/svg"
   xmlns:svg="http://www.w3.org/2000/svg">
  <defs
     id="defs1" />
  <sodipodi:namedview
     id="namedview1"
     pagecolor="#ffffff"
     bordercolor="#000000"
     borderopacity="0.25"
     inkscape:showpageshadow="2"
     inkscape:pageopacity="0.0"
     inkscape:pagecheckerboard="0"
     inkscape:deskcolor="#d1d1d1"
     showguides="true"
     inkscape:zoom="0.48888889"
     inkscape:cx="898.97727"
     inkscape:cy="213.75"
     inkscape:window-width="1898"
     inkscape:window-height="938"
     inkscape:window-x="0"
     inkscape:window-y="30"
     inkscape:window-maximized="0"
     inkscape:current-layer="svg1" />
  <path
     style="stroke-width:10;stroke-dasharray:none;stroke:#000000;stroke-opacity:1;fill:#000000;fill-opacity:1"
     d="m 1723.5481,86.52789 -2.4699,1.234968 V 329.81659 l 3.7049,1.23497 h 45.6938 c 2.47,-1.23497 2.47,-2.46994 2.47,-121.02687 l 1.2349,-121.026864 -3.7049,-1.234968 c -4.9399,-2.469936 -43.2239,-2.469936 -46.9288,-1.234968 z"
     id="path7" />
  <path
     style="stroke-width:10;stroke-dasharray:none;stroke:#000000;stroke-opacity:1;fill:#000000;fill-opacity:1"
     d="m 1469.1447,86.52789 c -4.9399,1.234968 -11.1147,4.939872 -11.1147,6.17484 v 90.15266 l 1.235,87.68273 2.4699,6.17484 c 2.4699,4.93988 2.4699,4.93988 1.235,9.87975 -2.47,9.87974 -2.47,12.34968 -1.235,16.05458 3.7049,6.17484 3.7049,14.81962 -1.235,18.52452 -3.7049,3.70491 -4.9398,7.40981 -1.2349,9.87975 l 27.1693,1.23496 c 30.8742,-1.23496 30.8742,0 25.9343,-24.69936 -2.4699,-11.11471 -2.4699,-20.99445 0,-24.69936 1.235,-3.7049 1.235,-3.7049 -1.235,-8.64477 -1.2349,-4.93987 -1.2349,-4.93987 1.235,-8.64478 l 2.4699,-4.93987 h 27.1693 l 29.6393,1.23497 c 3.7049,2.46993 9.8797,9.87974 16.0545,22.22942 2.47,6.17484 6.1749,11.11471 8.6448,12.34968 l 4.9399,6.17484 1.235,4.93987 6.1748,8.64478 c 11.1147,16.05458 9.8797,16.05458 40.7539,16.05458 30.8742,0 30.8742,0 16.0546,-16.05458 l -11.1147,-17.28955 -23.4644,-33.34414 c -11.1147,-13.58465 -11.1147,-14.81962 0,-19.75949 13.5847,-7.40981 34.5791,-32.10917 34.5791,-41.98891 l 2.47,-6.17484 c 3.7049,-6.17484 3.7049,-43.22388 0,-49.39872 l -2.47,-6.17484 -2.4699,-6.17484 -3.7049,-4.93987 c 0,-2.46994 -8.6448,-14.81962 -13.5847,-19.75949 -11.1147,-8.64478 -33.3441,-19.759488 -43.2238,-20.994456 l -19.7595,-3.704904 c -11.1147,-1.234968 -108.6772,-2.469936 -113.6171,0 z m 116.087,46.92878 c 11.1147,3.70491 28.4043,13.58465 28.4043,16.05459 l 2.4699,4.93987 c 3.7049,6.17484 4.9399,29.63923 1.235,32.10917 l -4.9399,8.64477 c -2.4699,8.64478 -9.8797,14.81962 -24.6994,18.52452 -8.6447,2.46994 -70.3931,3.70491 -72.8631,1.23497 l -1.2349,-32.10917 c 0,-30.8742 0,-32.10916 -2.47,-35.81407 -3.7049,-4.93987 -3.7049,-7.40981 1.235,-12.34968 l 2.4699,-3.7049 h 30.8742 z"
     id="path6" />
  <path
     style="stroke-width:10;stroke-dasharray:none;stroke:#000000;stroke-opacity:1;fill:#000000;fill-opacity:1"
     d="m 1269.0799,86.52789 c -8.6448,2.469936 -12.3497,6.17484 -12.3497,11.114712 l -2.4699,6.174838 -2.47,6.17484 -2.4699,4.93987 -2.4699,6.17484 -2.47,6.17484 -3.7049,7.40981 -2.4699,6.17484 -3.7049,7.40981 -2.4699,4.93987 -2.47,6.17484 -2.4699,6.17484 c -2.4699,1.23497 -3.7049,3.70491 -3.7049,6.17484 l -2.47,7.40981 c -2.4699,1.23497 -3.7049,4.93987 -3.7049,6.17484 l -2.4699,4.93987 -2.4699,6.17484 -2.47,7.40981 c -2.4699,1.23497 -3.7049,4.93987 -3.7049,6.17484 l -2.4699,4.93987 -2.4699,7.40981 -3.7049,7.40981 -2.47,6.17484 -2.4699,6.17484 -2.47,6.17484 -3.7049,6.17484 -3.7049,6.17484 -2.4699,4.93987 -2.4699,8.64478 -2.47,8.64477 -3.7049,4.93988 -2.4699,4.93987 -2.4699,4.93987 -2.47,4.93987 c -2.4699,2.46994 -3.7049,3.70491 -3.7049,7.40981 l -2.4699,7.40981 c -4.9399,6.17484 -8.6448,11.11471 -8.6448,13.58465 1.235,2.46993 51.8687,2.46993 54.3386,0 2.4699,-2.46994 13.5846,-25.93433 13.5846,-30.8742 l 3.7049,-9.87975 c 7.4099,-12.34968 0,-11.11471 66.6883,-11.11471 h 59.2785 l 3.7049,4.93987 4.9399,6.17484 2.4699,4.93987 2.4699,6.17484 c 0,2.46994 1.235,4.93988 3.7049,6.17484 2.47,2.46994 2.47,3.70491 2.47,8.64478 -1.235,3.7049 0,4.93987 3.7049,9.87974 l 4.9399,4.93988 24.6993,1.23496 h 27.1693 c 2.4699,-1.23496 3.7049,-4.93987 1.235,-4.93987 l -2.47,-3.7049 -3.7049,-7.40981 -3.7049,-7.40981 -2.4699,-6.17484 -3.7049,-4.93987 -2.4699,-7.40981 -8.6448,-18.52452 -2.47,-6.17484 -3.7049,-6.17484 -2.4699,-6.17484 -2.4699,-7.40981 -3.7049,-7.40981 -1.235,-2.46993 c 0,-2.46994 -7.4098,-17.28955 -11.1147,-20.99446 l -1.235,-4.93987 -2.4699,-6.17484 -3.7049,-7.40981 -3.7049,-9.87974 -3.7049,-9.87975 -6.1749,-9.87974 -2.4699,-6.17484 -3.7049,-7.40981 -3.7049,-7.40981 c 1.235,-1.23496 0,-3.7049 -1.235,-6.17484 a 543.38592,543.38592 0 0 1 -25.9343,-53.10362 z m 29.6392,64.21834 v 2.46993 l 2.47,4.93987 2.4699,8.64478 2.4699,7.40981 2.47,4.93987 4.9399,8.64478 1.2349,6.17484 c 0,3.7049 1.235,6.17484 3.7049,8.64477 l 2.47,6.17484 2.4699,3.70491 c 4.9399,4.93987 7.4098,18.52452 2.4699,22.22942 -2.4699,2.46994 -13.5846,4.93987 -19.7595,3.7049 a 408.77441,408.77441 0 0 0 -58.0435,-3.7049 c -1.2349,-1.23497 0,-7.40981 1.235,-8.64478 l 1.235,-2.46993 c 0,-2.46994 1.2349,-6.17484 3.7049,-8.64478 l 3.7049,-7.40981 2.4699,-6.17484 12.3497,-25.93432 2.4699,-6.17484 4.9399,-16.05459 3.7049,-6.17484 2.47,-3.7049 6.1748,3.7049 z"
     id="path5" />
  <path
     style="stroke-width:10;stroke-dasharray:none;stroke:#000000;stroke-opacity:1;fill:#000000;fill-opacity:1"
     d="m 950.45816,86.52789 c -7.40981,1.234968 -9.87975,3.704904 -8.64478,6.17484 v 225.99915 c -1.23497,14.81961 -2.46994,13.58464 25.93433,13.58464 19.75949,0 22.22942,-1.23496 24.69939,-2.46993 2.4699,-3.70491 0,-40.75395 -2.46997,-46.92879 -3.7049,-6.17484 -2.46993,-7.4098 1.23497,-16.05458 l 2.4699,-6.17484 h 40.754 c 48.1637,-1.23497 50.6337,-1.23497 72.8631,-12.34968 11.1147,-6.17484 25.9343,-17.28955 25.9343,-20.99446 l 4.9399,-7.40981 c 3.7049,-3.7049 4.9399,-6.17484 4.9399,-8.64477 l 2.4699,-7.40981 c 6.1748,-11.11471 7.4098,-49.39872 1.235,-56.80853 l -2.47,-6.17484 -2.4699,-6.17484 -3.7049,-7.40981 c 0,-4.93987 -24.6994,-27.16929 -32.1092,-29.639228 l -9.8797,-3.704904 c -7.4098,-3.704904 -23.4644,-6.17484 -28.4043,-4.939872 l -12.3497,-1.234968 C 1044.3157,85.292922 961.57287,84.057954 950.45816,86.52789 Z m 118.55694,48.16375 c 13.5846,6.17484 23.4644,12.34968 23.4644,14.81962 l 2.4699,4.93987 c 4.9399,6.17484 4.9399,29.63923 1.235,35.81407 l -3.7049,6.17484 -6.1749,4.93987 -7.4098,6.17484 c -6.1748,7.40981 -16.0546,8.64478 -50.6337,8.64478 H 993.682 c -2.4699,-1.23497 -2.4699,-83.97782 0,-83.97782 a 521.1565,521.1565 0 0 1 75.3331,2.46993 z"
     id="path4" />
  <path
     style="stroke-width:10;stroke-dasharray:none;stroke:#000000;stroke-opacity:1;fill:#000000;fill-opacity:1"
     d="m 600.96221,86.52789 a 6415.6588,6415.6588 0 0 1 -2.46994,242.05373 c 2.46994,2.46994 3.70491,3.7049 22.22943,3.7049 l 23.46439,-1.23496 3.7049,-1.23497 -1.23497,-8.64478 1.23497,-13.58465 c 3.70491,-4.93987 2.46994,-9.87974 0,-16.05458 -2.46993,-4.93987 -2.46993,-6.17484 -1.23497,-28.40426 0,-17.28956 0,-24.69937 2.46994,-27.1693 l 1.23497,-12.34968 c -2.46994,-19.75949 -2.46994,-35.81407 -1.23497,-35.81407 2.46994,0 4.93987,2.46993 7.40981,6.17484 0,2.46993 3.7049,4.93987 6.17484,6.17484 3.7049,1.23496 7.40981,6.17484 11.11471,14.81961 l 3.70491,6.17484 2.46993,6.17484 2.46994,6.17484 2.46993,3.70491 c 0,1.23496 2.46994,4.93987 6.17484,7.4098 4.93988,4.93988 6.17484,7.40981 6.17484,11.11472 0,2.46993 1.23497,4.93987 6.17484,8.64477 l 4.93988,7.40981 6.17484,9.87975 4.93987,12.34968 3.7049,7.4098 c 3.70491,3.70491 3.70491,3.70491 16.05459,3.70491 9.87974,0 11.11471,0 13.58464,-2.46994 l 2.46994,-3.7049 4.93987,-8.64478 4.93987,-11.11471 4.93988,-6.17484 4.93987,-7.40981 a 605.13432,605.13432 0 0 1 29.63923,-50.63369 l 6.17484,-9.87974 c 1.23497,-8.64478 8.64478,-18.52452 12.34968,-18.52452 2.46994,0 7.40981,4.93987 7.40981,8.64477 l -1.23497,20.99446 -1.23497,66.68827 v 45.69382 l 2.46994,2.46994 22.22942,1.23496 c 22.22943,-1.23496 25.93433,-2.46993 24.69936,-8.64477 -3.7049,-19.75949 -3.7049,-22.22943 -1.23497,-25.93433 2.46994,-4.93987 2.46994,-6.17484 2.46994,-82.74286 v -76.56801 l -3.7049,-4.93988 -2.46994,-4.93987 2.46994,-4.93987 c 3.7049,-4.93987 4.93987,-18.52452 3.7049,-30.8742 0,-7.409808 -32.10917,-9.879744 -43.22388,-4.939872 -4.93987,2.469936 -6.17484,4.939872 -9.87974,11.114712 l -4.93988,9.87974 -3.7049,4.93988 a 321.09168,321.09168 0 0 1 -14.81962,24.69936 l -2.46993,6.17484 c 0,2.46993 -1.23497,4.93987 -4.93987,8.64477 -3.70491,2.46994 -6.17484,6.17484 -6.17484,7.40981 l -2.46994,4.93987 c -2.46994,1.23497 -3.7049,4.93987 -3.7049,6.17484 l -2.46994,6.17484 -2.46994,4.93987 -6.17484,8.64478 -6.17484,7.40981 -1.23496,3.7049 -6.17484,9.87975 c -4.93988,9.87974 -12.34968,18.52452 -13.58465,18.52452 l -3.70491,2.46993 c -1.23496,2.46994 -7.4098,0 -9.87974,-6.17484 l -4.93987,-7.40981 -4.93987,-7.4098 a 639.71343,639.71343 0 0 0 -30.8742,-51.86866 l -9.87975,-14.81962 -7.40981,-16.05458 -4.93987,-4.93987 -16.05458,-28.404266 c 0,-3.704904 -6.17484,-9.879744 -11.11472,-9.879744 z"
     id="path3" />
  <path
     style="stroke-width:10;stroke-dasharray:none;stroke:#000000;stroke-opacity:1;fill:#000000;fill-opacity:1"
     d="M 399.66242,84.057954 A 133.37655,133.37655 0 0 0 298.39505,153.21616 l -2.46994,7.40981 -3.7049,4.93987 c -2.46994,2.46994 -2.46994,3.70491 -2.46994,8.64478 1.23497,6.17484 1.23497,7.40981 -1.23497,9.87974 -3.7049,2.46994 -3.7049,3.70491 -3.7049,19.75949 l -1.23497,16.05458 3.7049,3.70491 c 3.70491,3.7049 3.70491,3.7049 2.46994,13.58465 0,9.87974 0,11.11471 2.46994,14.81961 2.46993,1.23497 3.7049,4.93988 3.7049,6.17484 0,2.46994 2.46994,7.40981 8.64478,14.81962 l 3.7049,6.17484 c 1.23497,3.7049 16.05458,18.52452 28.40426,29.63923 7.40981,7.40981 35.81408,20.99446 48.16376,23.46439 23.46439,3.70491 45.69381,3.70491 67.92324,0 20.99445,-4.93987 53.10362,-23.46439 67.92324,-40.75394 a 95.092537,95.092537 0 0 0 18.52452,-28.40426 c 4.93987,-7.40981 8.64477,-17.28956 8.64477,-24.69937 l 2.46994,-9.87974 c 2.46994,-6.17484 3.7049,-23.46439 1.23497,-28.40426 l -2.46994,-13.58465 -3.7049,-13.58465 -2.46994,-7.40981 c 0,-3.7049 -1.23497,-7.40981 -4.93987,-13.58465 l -6.17484,-9.87974 -2.46994,-3.7049 -6.17484,-8.64478 C 512.04451,112.46222 479.93534,92.70273 451.53108,85.292922 441.65134,82.822986 408.3072,82.822986 399.66242,84.057954 Z m 43.22388,49.398716 c 13.58465,3.70491 19.75949,6.17484 25.93433,12.34968 l 9.87975,7.40981 6.17484,8.64478 3.7049,6.17484 2.46994,4.93987 c 0,1.23497 1.23496,4.93987 3.7049,6.17484 l 2.46994,3.7049 v 25.93433 c 0,25.93433 0,25.93433 -3.70491,28.40427 l -2.46993,7.4098 -2.46994,4.93988 -3.7049,6.17484 -7.40981,8.64477 -8.64478,7.40981 c -9.87974,9.87975 -30.8742,17.28955 -46.92878,17.28955 -13.58465,0 -37.04904,-6.17484 -46.92879,-13.58464 -9.87974,-6.17484 -27.16929,-23.4644 -27.16929,-28.40427 l -3.70491,-7.40981 -2.46993,-11.11471 -3.70491,-13.58465 c -3.7049,-4.93987 -3.7049,-11.11471 0,-16.05458 l 3.70491,-11.11471 c 1.23496,-7.40981 2.46993,-11.11472 9.87974,-22.22943 4.93987,-8.64477 4.93987,-9.87974 16.05458,-18.52452 14.81962,-12.34968 25.93433,-16.05458 49.39872,-16.05458 12.34969,0 18.52453,0 25.93433,2.46993 z"
     id="path2" />
  <path
     style="stroke-width:10;stroke-dasharray:none;opacity:1;stroke:#000000;stroke-opacity:1;fill:#000000;fill-opacity:1"
     d="m 141.55411,84.057954 c -30.8742,6.17484 -55.573562,16.054586 -65.453306,28.404266 l -8.644776,7.40981 c -4.939872,2.46993 -9.879744,8.64477 -12.34968,13.58464 l -2.469936,3.70491 -2.469936,4.93987 -9.879744,14.81962 -2.469936,7.4098 c 0,3.70491 0,6.17484 -2.469936,7.40981 -3.704904,4.93987 -3.704904,67.92324 0,74.09808 2.469936,2.46994 2.469936,3.70491 2.469936,8.64478 l 1.234968,4.93987 11.114712,17.28955 2.469936,2.46994 2.469936,6.17484 c 1.234968,3.7049 8.644776,9.87974 22.229424,22.22942 4.939872,4.93988 27.169298,17.28956 35.814068,20.99446 19.75949,8.64478 74.09809,8.64478 95.09254,0 a 138.31642,138.31642 0 0 0 54.33859,-38.28401 l -7.4098,-7.40981 -13.58465,-12.34968 c -9.87975,-11.11471 -16.05459,-11.11471 -23.46439,-3.7049 l -16.05459,12.34968 -12.34968,6.17484 -20.99446,1.23497 c -24.69936,0 -30.8742,-1.23497 -41.98891,-7.40981 l -6.17484,-3.7049 A 77.802985,77.802985 0 0 1 93.39036,248.3087 l -3.704908,-9.87975 -3.704904,-9.87974 c -3.704904,-4.93987 -3.704904,-35.81407 0,-41.98891 l 2.469936,-6.17484 c 0,-4.93987 13.584646,-27.1693 19.759486,-30.8742 22.22943,-16.05459 30.8742,-18.52452 55.57356,-18.52452 17.28956,0 25.93433,1.23497 34.57911,4.93987 l 4.93987,2.46994 8.64478,4.93987 c 17.28955,14.81961 16.05458,14.81961 34.5791,-3.70491 l 14.81962,-13.58464 -2.46994,-4.93988 -4.93987,-4.93987 -8.64478,-6.17484 -13.58465,-8.64477 -12.34968,-7.409812 C 203.30251,85.292922 163.78353,80.35305 141.55411,84.057954 Z"
     id="path1" />
</svg>
